<svg xmlns="http://www.w3.org/2000/svg" viewBox="0 0 720 420" role="img">
  <rect width="720" height="420" fill="#fbfaf6"/>
  <g stroke="#d7d0c4" stroke-width="1">
    <line x1="64" y1="330" x2="660" y2="330"/>
    <line x1="64" y1="70" x2="660" y2="70"/>
    <line x1="64" y1="79.0" x2="660" y2="79.0"/>
  </g>
  <text x="64" y="38" font-family="Inter, Arial, sans-serif" font-size="18" font-weight="700" fill="#141719">Performance Path: 2026-06-01 to 2026-06-10</text>
  <text x="54" y="83.0" text-anchor="end" font-family="Inter, Arial, sans-serif" font-size="12" fill="#5f676b">100</text>
  <polyline points="64.0,79.0 149.1,108.7 234.3,71.3 319.4,199.2 404.6,330.0 489.7,188.0 574.9,248.6 660.0,298.3" fill="none" stroke="#315f5b" stroke-width="4"/>
  <polyline points="64.0,79.0 149.1,74.9 234.3,89.0 319.4,70.0 404.6,161.1 489.7,144.1 574.9,153.4 660.0,217.0" fill="none" stroke="#8b5f2b" stroke-width="4"/>
  <text x="64" y="358" font-family="Inter, Arial, sans-serif" font-size="12" fill="#5f676b">2026-06-01</text>
  <text x="362.0" y="358" text-anchor="middle" font-family="Inter, Arial, sans-serif" font-size="12" fill="#5f676b">2026-06-05</text>
  <text x="660" y="358" text-anchor="end" font-family="Inter, Arial, sans-serif" font-size="12" fill="#5f676b">2026-06-10</text>
  <text x="64" y="392" font-family="Inter, Arial, sans-serif" font-size="13" fill="#315f5b">Portfolio</text>
  <text x="160" y="392" font-family="Inter, Arial, sans-serif" font-size="13" fill="#8b5f2b">S&amp;P 500 TR CAD</text>
</svg>
